<svg id="svg_canvas" data-noselect="" viewBox="0 0 800 600" width="800" height="600"
 preserveAspectRatio="none" version="1.1" xmlns="http://www.w3.org/2000/svg" 
 style="background-color: rgb(255, 255, 255);">
 <defs>
 </defs> 
 <g id="shape_WGq6Ye8mnL" 
 transform="translate(206.72476147238,207.35594177246) rotate(0,95.775238527625,98.609880574464) scale(1,1)" 
 filter="" style="cursor: move; opacity: 1;">
 <g>
 <rect fill="rgba(0,0,0,0)" width="211.55047705525" height="217.21976114893" x="-10" y="-10">
 </rect>
 <svg version="1.1" id="图层_1" xmlns="http://www.w3.org/2000/svg" xmlns:xlink="http://www.w3.org/1999/xlink" 
 x="0px" y="0px" width="191.55047705525" height="197.21976114893" 
 viewBox="15.099761962890625 21.3245849609375 152.90023803710938 157.42559814453125" 
 style="enable-background:new 0 0 200 200;" xml:space="preserve" preserveAspectRatio="none" data-parent="shape_WGq6Ye8mnL">
<style type="text/css">
	.st0{fill:#1730C6;}
	.st1{fill:#033CDD;}
	.st2{fill:#15BCC8;}
</style>
<path class="" d="M103.5,178.6c-20.7,1.4-46.1-7-63.1-24.7C18,130.7,10.1,104.6,18.2,73.2c1.5-5.9,4.9-9.1,11-8.4
	c9.6,1.1,14,6.8,12.1,15.7c-7,33.4,13.4,69.6,45.7,81.3c27.3,9.8,52.1,5.4,74.6-12.9c1.1-0.9,5.3-4.1,6.4-5
	C162.9,155.3,137.1,176.4,103.5,178.6z" fill="#1730C6"></path>
<path class="" d="M45,94.7C41.6,65,50.4,41.4,74.4,24.2c4.2-3.4,10.4-4.6,14.1,1c3.7,5.6,3.1,10.9-2.2,15
	C70.5,52.4,62.9,68.8,61.7,89c-1.6,27.5,17.6,55.4,43.4,62.3c6.2,1.7,13,2.3,20.7,3.3c-6.3,1.1-13.3,1.7-19.2,1.1
	c-19-2.1-35.7-10.3-46.9-26.5C53.7,120.5,46.7,109.9,45,94.7z" fill="#033CDD"></path>
<path class="" d="M82.3,127.2c-13.7-17.6-16.1-38-8.5-59.4c11.4-32,46.6-47.7,76.5-34.5c7.3,3.2,8.9,5.8,6.9,11.3
	c-2.4,6.6-5.8,8-13.1,5.4c-22.6-8-45-1-58.5,19.1c-10.3,15.4-12,32.3-5.2,49.9c0.6,1.5,1.1,2.9,1.7,4.3c0.5,1.1,3.5,7.1,3.5,7.1
	S84,129.3,82.3,127.2z" fill="#15BCC8"></path>
</svg>
</g>
</g>
<g id="shape_bgWDEJoTig" transform="translate(305.5,261.94578933716) rotate(0,150.34402585538,44.02) scale(1,1)" 
filter="" style="cursor: move; opacity: 1;">
<g>
<svg xmlns="http://www.w3.org/2000/svg" version="1.1" xmlns:xlink="http://www.w3.org/1999/xlink" width="356" height="73.12" 
viewBox="0 0 356 73.12" data-parent="shape_bgWDEJoTig"><rect fill="rgba(0,0,0,0)" width="356" height="73.12"></rect><g data-width="355.00000000000006" transform=""><path d="M35.43-39.48L37.63-48.64L52.75-48.64Q53.46-48.64 53.92-48.10Q54.39-47.57 54.24-46.86L54.24-46.86L52.97-39.48L67.38-39.48L69.23-49.91Q69.30-50.13 69.30-50.48L69.30-50.48Q69.30-51.69 68.44-52.54Q67.59-53.39 66.31-53.39L66.31-53.39L38.77-53.39L39.55-56.66L25.28-56.66L21.23-39.48L35.43-39.48ZM6.25-42.60L19.74-42.60L17.18-55.95L4.26-55.95L6.25-42.60ZM51.83-40.47L51.83-46.08L37.06-46.08L37.06-40.47L19.67-24.64L37.84-24.64L44.45-30.60L51.69-24.64L69.23-24.64L51.83-40.47ZM17.04-24.57L19.53-40.47L6.11-40.47L3.62-24.57L17.04-24.57ZM50.55-3.69L65.53-3.69L65.53-18.03Q65.53-19.88 64.22-21.19Q62.91-22.51 61.13-22.51L61.13-22.51L7.88-22.51L7.88-3.69L22.93-3.69L22.93-17.75L49.06-17.75Q50.55-17.75 50.55-16.26L50.55-16.26L50.55-3.69ZM44.80-7.17L44.80-15.34L28.61-15.34L28.61-7.17L4.76 11.08L25.42 11.08L36.71 3.05L48.00 11.08L68.66 11.08L44.80-7.17Z" transform="translate(0 61) " fill="#1730c6" stroke="#1730c6" stroke-linecap="square" stroke-linejoin="square" stroke-width="0.118" data-glyph-w="71.00000000000001" data-glyph-h="72.42" data-glyph-ascender="61.06000000000001" data-glyph-descender="-11.360000000000001"></path><path d="M67.95-54.53L67.95-49.70L34.86-49.70Q33.37-49.70 33.37-48.21L33.37-48.21L33.37 11.01L19.74 11.01L19.74-50.06Q19.74-51.90 21.05-53.21Q22.37-54.53 24.21-54.53L24.21-54.53L67.95-54.53ZM3.69-54.39L16.33-54.39L17.32-38.06L4.69-38.06L3.69-54.39ZM67.88-13.70L58.50-13.70L58.50 11.01L44.23 11.01L44.23 5.61L45.58 5.61L45.58-13.70L36.21-13.70L36.21-42.25L43.31-42.25L44.52-47.85L59.21-47.85L58.08-42.25L63.47-42.25Q65.25-42.25 66.56-40.93Q67.88-39.62 67.88-37.77L67.88-37.77L67.88-13.70ZM53.11-37.42L49.56-37.42L49.56-30.53L54.60-30.53L54.60-35.93Q54.60-37.42 53.11-37.42L53.11-37.42ZM3.69-34.29L16.33-34.29L17.32-17.82L4.69-17.82L3.69-34.29ZM49.56-25.49L49.56-18.46L54.60-18.46L54.60-25.49L49.56-25.49ZM2.20 11.08L4.47-14.41L17.32-14.41L14.91 11.08L2.20 11.08ZM36.28-10.65L44.45-10.65L43.59 10.79L35.36 10.79L36.28-10.65ZM59.43-10.65L67.59-10.65L68.02 10.79L59.92 10.79L59.43-10.65Z" transform="translate(71.00000000000001 61) " fill="#1730c6" stroke="#1730c6" stroke-linecap="square" stroke-linejoin="square" stroke-width="0.118" data-glyph-w="71.00000000000001" data-glyph-h="72.42" data-glyph-ascender="61.06000000000001" data-glyph-descender="-11.360000000000001"></path><path d="M69.15-18.03L69.15-13.28L2.06-13.28L2.06-18.03L11.57-18.03L11.57-37.20L4.69-37.20L4.69-41.96L11.57-41.96L11.57-56.09L29.47-56.09L29.47-41.96L41.82-41.96L41.82-56.09L59.71-56.09L59.71-41.96L66.60-41.96L66.60-37.20L59.71-37.20L59.71-18.03L69.15-18.03ZM29.47-37.20L29.47-18.03L41.82-18.03L41.82-37.20L29.47-37.20ZM21.73 11.22L3.41 11.22L11.50-9.02L29.47-9.02L21.73 11.22ZM49.77 11.22L41.96-9.02L60.00-9.02L68.02 11.22L49.77 11.22Z" transform="translate(142.00000000000003 61) " fill="#1730c6" stroke="#1730c6" stroke-linecap="square" stroke-linejoin="square" stroke-width="0.118" data-glyph-w="71.00000000000001" data-glyph-h="72.42" data-glyph-ascender="61.06000000000001" data-glyph-descender="-11.360000000000001"></path><path d="M67.81-45.72L67.81-50.48L44.45-50.48L44.45-56.80L26.55-56.80L26.55-50.48L3.20-50.48L3.20-45.72L67.81-45.72ZM60.21-42.39L6.32-42.39L6.32-25.42L64.61-25.42L64.61-37.91Q64.61-39.76 63.30-41.07Q61.98-42.39 60.21-42.39L60.21-42.39ZM46.72-36.00L46.72-30.32L24.28-30.32L24.28-37.49L45.23-37.49Q46.72-37.49 46.72-36.00L46.72-36.00ZM67.95-8.02L50.20-8.02L58.36-16.90Q59.14-17.82 59.14-18.89L59.14-18.89Q59.14-20.02 58.29-20.95Q57.44-21.87 56.16-21.87L56.16-21.87L7.38-21.87L7.38-17.04L35.64-17.04Q36.28-17.04 36.71-16.58Q37.13-16.12 37.13-15.55L37.13-15.55Q37.13-14.91 36.71-14.48L36.71-14.48L29.89-8.02L2.34-8.02L2.34-3.20L27.69-3.20L27.69 6.39L22.51 6.39L22.51 11.43L45.72 11.43L45.72-3.20L67.95-3.20L67.95-8.02Z" transform="translate(213.00000000000006 61) " fill="#1730c6" stroke="#1730c6" stroke-linecap="square" stroke-linejoin="square" stroke-width="0.118" data-glyph-w="71.00000000000001" data-glyph-h="72.42" data-glyph-ascender="61.06000000000001" data-glyph-descender="-11.360000000000001"></path><path d="M62.84-54.95Q64.61-54.95 65.92-53.64Q67.24-52.33 67.24-50.48L67.24-50.48L67.24 11.15L45.72 11.15L45.72 6.32L50.91 6.32L50.91-48.64Q50.91-50.13 49.42-50.13L49.42-50.13L20.38-50.13L20.38 11.15L4.62 11.15L4.62-54.95L62.84-54.95ZM29.82-41.61L35.36-41.61L31.24-20.59L35.36 0.43L29.82 0.43L28.40-6.53L27.05 0.43L20.73 0.43L25.49-21.44L21.44-41.61L27.05-41.61L28.40-34.93L29.82-41.61ZM49.98 0.43L44.52 0.43L43.10-6.60L41.75 0.43L36.14 0.43L40.33-20.59L36.14-41.61L41.75-41.61L43.10-34.58L44.52-41.61L49.98-41.61L45.87-20.59L49.98 0.43Z" transform="translate(284.00000000000006 61) " fill="#1730c6" stroke="#1730c6" stroke-linecap="square" stroke-linejoin="square" stroke-width="0.118" data-glyph-w="71.00000000000001" data-glyph-h="72.42" data-glyph-ascender="61.06000000000001" data-glyph-descender="-11.360000000000001"></path></g></svg></g></g><g id="shape_YB19zCWwaG" transform="translate(408,349.98583984375) rotate(0,104.63989257812,16.326904296875) scale(1,1)" filter="" style="cursor: move; opacity: 1;"><g><svg xmlns="http://www.w3.org/2000/svg" version="1.1" xmlns:xlink="http://www.w3.org/1999/xlink" width="129" height="26.89453125" viewBox="0 0 129 26.89453125" data-parent="shape_YB19zCWwaG"><rect fill="rgba(0,0,0,0)" width="129" height="26.89453125"></rect><g data-width="128.955078125" transform=""><path d="M8.34-9.73L3.71-9.73L3.71-2.88L1.22-2.88L1.22-20.31L9.63-20.31Q11.82-20.31 13.37-18.76L13.37-18.76Q14.92-17.21 14.92-15.01L14.92-15.01Q14.92-12.83 13.37-11.28L13.37-11.28Q12.41-10.33 11.22-9.96L11.22-9.96L16.16-2.88L13.13-2.88L8.34-9.73ZM9.63-17.82L3.71-17.82L3.71-12.22L9.63-12.22Q10.79-12.22 11.61-13.04L11.61-13.04Q12.43-13.85 12.43-15.01L12.43-15.01Q12.43-16.17 11.61-17.00L11.61-17.00Q10.79-17.82 9.63-17.82L9.63-17.82Z" transform="translate(0 20) " fill="#1730c6" stroke="#1730c6" stroke-linecap="square" stroke-linejoin="square" stroke-width="0.042" data-glyph-w="15.6494140625" data-glyph-h="26.0498046875" data-glyph-ascender="20.947265625" data-glyph-descender="-5.1025390625"></path><path d="M1.22-20.31L13.67-20.31L13.67-17.82L3.71-17.82L3.71-12.84L13.67-12.84L13.67-10.35L3.71-10.35L3.71-5.37L13.67-5.37L13.67-2.88L1.22-2.88L1.22-20.31Z" transform="translate(15.6494140625 20) " fill="#1730c6" stroke="#1730c6" stroke-linecap="square" stroke-linejoin="square" stroke-width="0.042" data-glyph-w="14.404296875" data-glyph-h="26.0498046875" data-glyph-ascender="20.947265625" data-glyph-descender="-5.1025390625"></path><path d="M7.90-2.56Q10.86-2.56 12.95-4.09L12.95-4.09Q15.05-5.62 15.05-7.78L15.05-7.78Q15.05-10.12 13.31-11.36L13.31-11.36Q12.07-12.23 9.45-12.81L9.45-12.81Q6.10-13.53 5.60-13.71L5.60-13.71Q3.85-14.38 3.85-15.72L3.85-15.72Q3.85-16.72 5.03-17.43L5.03-17.43Q6.21-18.13 7.90-18.13L7.90-18.13Q9.41-18.13 10.56-17.36L10.56-17.36Q11.69-16.60 11.90-15.45L11.90-15.45L14.42-15.45Q14.22-17.63 12.34-19.13L12.34-19.13Q10.46-20.63 7.90-20.63L7.90-20.63Q5.19-20.63 3.27-19.19L3.27-19.19Q1.35-17.75 1.35-15.72L1.35-15.72Q1.35-13.44 3.10-12.24L3.10-12.24Q4.31-11.43 6.96-10.88L6.96-10.88Q10.13-10.22 10.82-9.94L10.82-9.94Q12.56-9.24 12.56-7.78L12.56-7.78Q12.56-6.65 11.19-5.86L11.19-5.86Q9.83-5.05 7.90-5.05L7.90-5.05Q5.96-5.05 4.59-6.05L4.59-6.05Q3.22-7.07 3.22-8.48L3.22-8.48L0.73-8.48Q0.73-6.03 2.83-4.30L2.83-4.30Q4.93-2.56 7.90-2.56L7.90-2.56Z" transform="translate(30.0537109375 20) " fill="#1730c6" stroke="#1730c6" stroke-linecap="square" stroke-linejoin="square" stroke-width="0.042" data-glyph-w="15.78369140625" data-glyph-h="26.0498046875" data-glyph-ascender="20.947265625" data-glyph-descender="-5.1025390625"></path><path d="M9.77-20.63Q13.50-20.63 16.15-17.98L16.15-17.98Q18.79-15.33 18.79-11.60L18.79-11.60Q18.79-7.85 16.15-5.21L16.15-5.21Q13.50-2.56 9.77-2.56L9.77-2.56Q6.02-2.56 3.38-5.21L3.38-5.21Q0.73-7.85 0.73-11.60L0.73-11.60Q0.73-15.33 3.38-17.98L3.38-17.98Q6.02-20.63 9.77-20.63L9.77-20.63ZM9.77-18.13L9.77-18.13Q7.06-18.13 5.14-16.22L5.14-16.22Q3.22-14.31 3.22-11.60L3.22-11.60Q3.22-8.89 5.14-6.97L5.14-6.97Q7.06-5.05 9.77-5.05L9.77-5.05Q12.48-5.05 14.38-6.97L14.38-6.97Q16.30-8.89 16.30-11.60L16.30-11.60Q16.30-14.31 14.38-16.22L14.38-16.22Q12.48-18.13 9.77-18.13Z" transform="translate(45.83740234375 20) " fill="#1730c6" stroke="#1730c6" stroke-linecap="square" stroke-linejoin="square" stroke-width="0.042" data-glyph-w="19.51904296875" data-glyph-h="26.0498046875" data-glyph-ascender="20.947265625" data-glyph-descender="-5.1025390625"></path><path d="M8.07-2.56Q10.91-2.56 12.92-4.21L12.92-4.21Q14.92-5.85 14.92-8.17L14.92-8.17L14.92-20.31L12.43-20.31L12.43-8.17Q12.43-6.88 11.16-5.97L11.16-5.97Q9.88-5.05 8.07-5.05L8.07-5.05Q6.26-5.05 4.99-5.97L4.99-5.97Q3.71-6.88 3.71-8.17L3.71-8.17L3.71-20.31L1.22-20.31L1.22-8.17Q1.22-5.85 3.22-4.21L3.22-4.21Q5.24-2.56 8.07-2.56L8.07-2.56Z" transform="translate(65.3564453125 20) " fill="#1730c6" stroke="#1730c6" stroke-linecap="square" stroke-linejoin="square" stroke-width="0.042" data-glyph-w="16.1376953125" data-glyph-h="26.0498046875" data-glyph-ascender="20.947265625" data-glyph-descender="-5.1025390625"></path><path d="M8.34-9.73L3.71-9.73L3.71-2.88L1.22-2.88L1.22-20.31L9.63-20.31Q11.82-20.31 13.37-18.76L13.37-18.76Q14.92-17.21 14.92-15.01L14.92-15.01Q14.92-12.83 13.37-11.28L13.37-11.28Q12.41-10.33 11.22-9.96L11.22-9.96L16.16-2.88L13.13-2.88L8.34-9.73ZM9.63-17.82L3.71-17.82L3.71-12.22L9.63-12.22Q10.79-12.22 11.61-13.04L11.61-13.04Q12.43-13.85 12.43-15.01L12.43-15.01Q12.43-16.17 11.61-17.00L11.61-17.00Q10.79-17.82 9.63-17.82L9.63-17.82Z" transform="translate(81.494140625 20) " fill="#1730c6" stroke="#1730c6" stroke-linecap="square" stroke-linejoin="square" stroke-width="0.042" data-glyph-w="15.6494140625" data-glyph-h="26.0498046875" data-glyph-ascender="20.947265625" data-glyph-descender="-5.1025390625"></path><path d="M9.77-2.56Q13.96-2.56 16.67-5.79L16.67-5.79L14.77-7.40Q12.81-5.05 9.77-5.05L9.77-5.05Q7.06-5.05 5.14-6.97L5.14-6.97Q3.22-8.89 3.22-11.60L3.22-11.60Q3.22-14.31 5.14-16.22L5.14-16.22Q7.06-18.13 9.77-18.13L9.77-18.13Q12.81-18.13 14.77-15.80L14.77-15.80L16.67-17.40Q13.96-20.63 9.77-20.63L9.77-20.63Q6.02-20.63 3.38-17.98L3.38-17.98Q0.73-15.33 0.73-11.60L0.73-11.60Q0.73-7.85 3.38-5.21L3.38-5.21Q6.02-2.56 9.77-2.56L9.77-2.56Z" transform="translate(97.1435546875 20) " fill="#1730c6" stroke="#1730c6" stroke-linecap="square" stroke-linejoin="square" stroke-width="0.042" data-glyph-w="17.4072265625" data-glyph-h="26.0498046875" data-glyph-ascender="20.947265625" data-glyph-descender="-5.1025390625"></path><path d="M1.22-20.31L13.67-20.31L13.67-17.82L3.71-17.82L3.71-12.84L13.67-12.84L13.67-10.35L3.71-10.35L3.71-5.37L13.67-5.37L13.67-2.88L1.22-2.88L1.22-20.31Z" transform="translate(114.55078125 20) " fill="#1730c6" stroke="#1730c6" stroke-linecap="square" stroke-linejoin="square" stroke-width="0.042" data-glyph-w="14.404296875" data-glyph-h="26.0498046875" data-glyph-ascender="20.947265625" data-glyph-descender="-5.1025390625"></path></g></svg></g></g> <g id="rectBox"><rect id="rect_shape_WGq6Ye8mnL" width="191.55047705525" height="197.21976114893" transform="translate(206.72476147238,207.35594177246) rotate(0,95.775238527625,98.609880574464) scale(1,1)" fill="none" stroke="rgba(0,0,0,0)" class="box_trans"></rect><rect id="rect_shape_bgWDEJoTig" width="356" height="73.12" transform="translate(305.5,261.94578933716) rotate(0,150.34402585538,44.02) scale(1,1)" fill="none" stroke="rgba(0,0,0,0)" class="box_trans"></rect><rect id="rect_shape_YB19zCWwaG" width="129" height="26.89453125" transform="translate(408,349.98583984375) rotate(0,104.63989257812,16.326904296875) scale(1,1)" fill="none" stroke="rgba(0,0,0,0)" class="box_trans"></rect></g> <!----></svg>